PathFileType	4	(X/Y/Z)	/Users/itak/Documents/Research/Walk-IL/dataset/trc/00102_00007.trc
DataRate	CameraRate	NumFrames	NumMarkers	Units	OrigDataRate	OrigDataStartFrame	OrigNumFrames
100.000000	100.000000	4	53	mm	100.000000	70	565
Frame#	Time	RPSI			LPSI			L3			STRN			T10			C7			CLAV			RBAK			LBAK			LSHO			LUPA			LAEL			LAOL			LWTS			LWPS			LFRA			LIFD			LHPS			LHTS			RSHO			RUPA			RAEL			RAOL			RWTS			RWPS			RFRA			RIFD			RHTS			RHPS			RBHD			LFHD			RFHD			LBHD			LHIP			RHIP			RASI			LASI			LKNE			LTHI			LANK			LTIP			LTOE			LMT1			LMT5			LHEE			RKNE			RTHI			RANK			RTIP			RTOE			RMT1			RMT5			RHEE			
		X1	Y1	Z1	X2	Y2	Z2	X3	Y3	Z3	X4	Y4	Z4	X5	Y5	Z5	X6	Y6	Z6	X7	Y7	Z7	X8	Y8	Z8	X9	Y9	Z9	X10	Y10	Z10	X11	Y11	Z11	X12	Y12	Z12	X13	Y13	Z13	X14	Y14	Z14	X15	Y15	Z15	X16	Y16	Z16	X17	Y17	Z17	X18	Y18	Z18	X19	Y19	Z19	X20	Y20	Z20	X21	Y21	Z21	X22	Y22	Z22	X23	Y23	Z23	X24	Y24	Z24	X25	Y25	Z25	X26	Y26	Z26	X27	Y27	Z27	X28	Y28	Z28	X29	Y29	Z29	X30	Y30	Z30	X31	Y31	Z31	X32	Y32	Z32	X33	Y33	Z33	X34	Y34	Z34	X35	Y35	Z35	X36	Y36	Z36	X37	Y37	Z37	X38	Y38	Z38	X39	Y39	Z39	X40	Y40	Z40	X41	Y41	Z41	X42	Y42	Z42	X43	Y43	Z43	X44	Y44	Z44	X45	Y45	Z45	X46	Y46	Z46	X47	Y47	Z47	X48	Y48	Z48	X49	Y49	Z49	X50	Y50	Z50	X51	Y51	Z51	X52	Y52	Z52	X53	Y53	Z53	

71	0.7000000000000001	-1893.972534179688	1127.103759765625	-277.1207580566406	-1887.325805664062	1127.033569335938	-411.3751220703125	-1897.49560546875	1158.87841796875	-347.4950256347656	-1683.917114257812	1359.871704101562	-338.1277770996094	-1938.185546875	1307.735473632812	-351.9251403808594	-1903.187377929688	1599.845825195312	-365.1333618164062	-1719.847290039062	1495.327270507812	-344.0446166992188	-1962.538330078125	1416.610473632812	-280.6494140625	-1904.725952148438	1579.73779296875	-467.2821350097656	-1813.439453125	1567.04736328125	-529.7813720703125	-1825.56640625	1433.3330078125	-598.7071533203125	-1801.752075195312	1213.165771484375	-613.2877807617188	-1872.626831054688	1199.930541992188	-563.15673828125	-1698.689575195312	960.602294921875	-553.470458984375	-1776.803344726562	931.7423095703125	-587.074951171875	-1781.803466796875	1098.04736328125	-612.10595703125	-1685.800048828125	767.8638305664062	-524.0057983398438	-1744.517944335938	857.6329345703125	-582.5144653320312	-1679.397338867188	871.2837524414062	-560.22607421875	-1860.42919921875	1583.246948242188	-180.2973480224609	-1880.587646484375	1509.462890625	-117.5731964111328	-1883.751342773438	1214.166748046875	-96.39896392822266	-1885.493896484375	1212.59228515625	-194.1824645996094	-1730.388061523438	975.7254638671875	-103.0188293457031	-1806.737548828125	956.2310791015625	-75.84368896484375	-1859.268676757812	1141.592407226562	-79.95664215087891	-1700.168212890625	781.1973876953125	-118.6819076538086	-1698.980102539062	867.6536865234375	-96.12403869628906	-1768.96875	857.9786987304688	-68.92788696289062	-1878.077514648438	1766.648315429688	-279.5734558105469	-1726.367065429688	1847.791625976562	-419.1768798828125	-1722.359008789062	1854.000122070312	-289.3856811523438	-1888.58349609375	1763.159301757812	-414.1351013183594	-1792.431518554688	1035.011108398438	-512.49462890625	-1774.819458007812	1031.759765625	-153.002685546875	-1689.587646484375	1103.790283203125	-202.3347015380859	-1683.298583984375	1101.6875	-469.3072814941406	-1781.065673828125	533.5756225585938	-471.7442321777344	-1796.536743164062	679.8143310546875	-502.7537231445312	-1904.31689453125	36.84345245361328	-454.985107421875	-1886.54052734375	288.8824768066406	-494.6730651855469	-1674.640625	36.74382400512695	-391.4805603027344	-1756.782348632812	40.51055145263672	-359.5208740234375	-1778.472045898438	33.53028106689453	-477.7163696289062	-1974.396484375	37.45059204101562	-393.0722351074219	-1790.57421875	539.2058715820312	-180.4570007324219	-1760.1708984375	817.3482666015625	-155.0275573730469	-1894.730590820312	28.76671981811523	-194.4273986816406	-1820.250732421875	406.8825073242188	-169.0592956542969	-1662.295532226562	40.96332168579102	-244.5102081298828	-1722.432373046875	31.67851448059082	-287.7225646972656	-1761.758544921875	36.52807998657227	-171.1382141113281	-1950.987060546875	32.60485458374023	-243.0379180908203	
72	0.71	-1893.956665039062	1127.120971679688	-277.2137451171875	-1887.313842773438	1127.04443359375	-411.4749145507812	-1897.519287109375	1158.8984375	-347.6204833984375	-1683.8544921875	1359.847412109375	-338.2016296386719	-1938.100341796875	1307.771484375	-352.0342407226562	-1903.069213867188	1599.870971679688	-365.20068359375	-1719.742065429688	1495.315673828125	-344.1189270019531	-1962.486450195312	1416.671020507812	-280.77685546875	-1904.55908203125	1579.773193359375	-467.3702392578125	-1813.2880859375	1567.052856445312	-529.8612670898438	-1825.4453125	1433.360107421875	-598.7697143554688	-1801.630737304688	1213.176879882812	-613.3632202148438	-1872.5029296875	1199.9501953125	-563.263916015625	-1698.637451171875	960.6041870117188	-553.4891967773438	-1776.757202148438	931.7557983398438	-587.14013671875	-1781.690673828125	1098.055541992188	-612.1705322265625	-1685.76611328125	767.8565673828125	-524.0357055664062	-1744.408447265625	857.6251831054688	-582.552978515625	-1679.31494140625	871.272705078125	-560.2484130859375	-1860.318969726562	1583.26953125	-180.3722229003906	-1880.492797851562	1509.487060546875	-117.6580276489258	-1883.713989257812	1214.194458007812	-96.52784729003906	-1885.47265625	1212.6142578125	-194.2998504638672	-1730.380126953125	975.7186889648438	-103.1266326904297	-1806.75341796875	956.23193359375	-75.96906280517578	-1859.251586914062	1141.604736328125	-80.06841278076172	-1700.170166015625	781.19384765625	-118.8026580810547	-1699.040161132812	867.64697265625	-96.22371673583984	-1768.9599609375	857.9801635742188	-69.04093933105469	-1877.92041015625	1766.644653320312	-279.6188049316406	-1726.201293945312	1847.810668945312	-419.2290649414062	-1722.204711914062	1854.004638671875	-289.4039916992188	-1888.422607421875	1763.15478515625	-414.1769714355469	-1792.427612304688	1035.008544921875	-512.5882568359375	-1774.823120117188	1031.791015625	-153.0814056396484	-1689.580200195312	1103.779296875	-202.4445953369141	-1683.271362304688	1101.669799804688	-469.3506164550781	-1781.109252929688	533.5726318359375	-471.8348388671875	-1796.554443359375	679.7940063476562	-502.8506164550781	-1904.323974609375	36.82313919067383	-455.0138549804688	-1886.589965820312	288.8659362792969	-494.7359008789062	-1674.651123046875	36.75209045410156	-391.4882507324219	-1756.796264648438	40.53305435180664	-359.5285949707031	-1778.471801757812	33.52053451538086	-477.7348937988281	-1974.398559570312	37.44827270507812	-393.0892639160156	-1790.511962890625	539.2210693359375	-180.4817199707031	-1760.203247070312	817.3527221679688	-155.0371398925781	-1894.727905273438	28.77295303344727	-194.4271697998047	-1820.183349609375	406.8797912597656	-169.1097564697266	-1662.295776367188	40.96969604492188	-244.5073394775391	-1722.43603515625	31.6783561706543	-287.7160949707031	-1761.77001953125	36.53111267089844	-171.1280975341797	-1950.984375	32.60614395141602	-243.0406951904297	
73	0.72	-1893.93701171875	1127.13720703125	-277.3017883300781	-1887.300048828125	1127.05517578125	-411.5684204101562	-1897.527465820312	1158.917236328125	-347.7319946289062	-1683.79248046875	1359.822509765625	-338.2700805664062	-1938.00927734375	1307.81005859375	-352.1346130371094	-1902.944946289062	1599.898681640625	-365.263916015625	-1719.6357421875	1495.304565429688	-344.183349609375	-1962.423583984375	1416.73193359375	-280.9035949707031	-1904.376831054688	1579.808227539062	-467.4550170898438	-1813.1220703125	1567.052001953125	-529.9338989257812	-1825.320556640625	1433.38671875	-598.826416015625	-1801.507446289062	1213.188720703125	-613.4349975585938	-1872.389770507812	1199.96875	-563.3692016601562	-1698.58349609375	960.6055297851562	-553.501708984375	-1776.707763671875	931.7677001953125	-587.2017822265625	-1781.574462890625	1098.06396484375	-612.2308959960938	-1685.7294921875	767.8502807617188	-524.0585327148438	-1744.296630859375	857.617431640625	-582.5870361328125	-1679.227294921875	871.2601318359375	-560.262451171875	-1860.213256835938	1583.293579101562	-180.4395904541016	-1880.397705078125	1509.511840820312	-117.7423782348633	-1883.680541992188	1214.222045898438	-96.64903259277344	-1885.45263671875	1212.637817382812	-194.4140930175781	-1730.372192382812	975.7200927734375	-103.2230072021484	-1806.76220703125	956.2354125976562	-76.09049224853516	-1859.23828125	1141.617553710938	-80.17293548583984	-1700.155395507812	781.1998901367188	-118.9186859130859	-1699.087768554688	867.6476440429688	-96.31267547607422	-1768.945922851562	857.9844970703125	-69.14754486083984	-1877.754028320312	1766.650390625	-279.6615600585938	-1726.02392578125	1847.82470703125	-419.2824401855469	-1722.027954101562	1854.008422851562	-289.4253540039062	-1888.253784179688	1763.152587890625	-414.2147827148438	-1792.42529296875	1035.006591796875	-512.6786499023438	-1774.81787109375	1031.8193359375	-153.1584167480469	-1689.566162109375	1103.769409179688	-202.5481262207031	-1683.239624023438	1101.657470703125	-469.3906860351562	-1781.154052734375	533.5707397460938	-471.9242858886719	-1796.575439453125	679.7757568359375	-502.9414978027344	-1904.330444335938	36.80190658569336	-455.0425720214844	-1886.64697265625	288.8506774902344	-494.7948913574219	-1674.666259765625	36.76011657714844	-391.4953918457031	-1756.809448242188	40.55776977539062	-359.5350341796875	-1778.471801757812	33.50974655151367	-477.7538452148438	-1974.400146484375	37.44435119628906	-393.105712890625	-1790.441284179688	539.2334594726562	-180.5085601806641	-1760.224975585938	817.3573608398438	-155.0494995117188	-1894.724243164062	28.77793312072754	-194.4277191162109	-1820.108276367188	406.8757629394531	-169.1610870361328	-1662.295532226562	40.97471237182617	-244.5056915283203	-1722.43896484375	31.67799377441406	-287.7109985351562	-1761.778442382812	36.53438186645508	-171.1199340820312	-1950.981323242188	32.60714340209961	-243.0436706542969	
74	0.73	-1893.911987304688	1127.152465820312	-277.3838806152344	-1887.283081054688	1127.066040039062	-411.6539916992188	-1897.51953125	1158.93505859375	-347.8288269042969	-1683.730712890625	1359.796875	-338.3334045410156	-1937.913208007812	1307.849365234375	-352.2240905761719	-1902.81298828125	1599.927734375	-365.3240966796875	-1719.5283203125	1495.293212890625	-344.2381896972656	-1962.3486328125	1416.790649414062	-281.0282287597656	-1904.182983398438	1579.841918945312	-467.5345458984375	-1812.944213867188	1567.045532226562	-529.9988403320312	-1825.190673828125	1433.412109375	-598.8777465820312	-1801.3828125	1213.200927734375	-613.5023803710938	-1872.286987304688	1199.985717773438	-563.4708251953125	-1698.527587890625	960.6057739257812	-553.5088500976562	-1776.654541015625	931.7774658203125	-587.2595825195312	-1781.455444335938	1098.072021484375	-612.285888671875	-1685.68994140625	767.8442993164062	-524.0747680664062	-1744.18408203125	857.6093139648438	-582.6171264648438	-1679.135620117188	871.2457275390625	-560.26953125	-1860.11181640625	1583.317504882812	-180.4990539550781	-1880.303833007812	1509.5361328125	-117.8251724243164	-1883.652465820312	1214.248291015625	-96.76241302490234	-1885.433471679688	1212.661865234375	-194.5244293212891	-1730.365112304688	975.7290649414062	-103.3074417114258	-1806.765014648438	956.2409057617188	-76.2069091796875	-1859.22998046875	1141.630126953125	-80.27008056640625	-1700.125732421875	781.2144775390625	-119.0299835205078	-1699.123901367188	867.6546630859375	-96.39093780517578	-1768.928833007812	857.990234375	-69.24783325195312	-1877.57958984375	1766.665161132812	-279.7032165527344	-1725.838256835938	1847.8330078125	-419.335693359375	-1721.82958984375	1854.010620117188	-289.4499816894531	-1888.077758789062	1763.154663085938	-414.2507019042969	-1792.423950195312	1035.0048828125	-512.765869140625	-1774.802612304688	1031.84423828125	-153.2340393066406	-1689.543212890625	1103.760009765625	-202.6467132568359	-1683.204223632812	1101.650146484375	-469.4279174804688	-1781.19921875	533.5701293945312	-472.0125122070312	-1796.599731445312	679.7595825195312	-503.0258483886719	-1904.335693359375	36.77918243408203	-455.0701293945312	-1886.70703125	288.8377075195312	-494.8495483398438	-1674.68505859375	36.76837539672852	-391.5029602050781	-1756.822021484375	40.58433151245117	-359.5401000976562	-1778.472045898438	33.49825668334961	-477.7727355957031	-1974.4013671875	37.43871307373047	-393.1216125488281	-1790.366088867188	539.2434692382812	-180.5371704101562	-1760.234252929688	817.3616333007812	-155.0652770996094	-1894.719848632812	28.78173446655273	-194.4289855957031	-1820.028686523438	406.8716430664062	-169.2125549316406	-1662.294677734375	40.97829818725586	-244.5052337646484	-1722.441040039062	31.67752838134766	-287.7074279785156	-1761.782836914062	36.53788757324219	-171.1141662597656	-1950.977905273438	32.60781478881836	-243.0466918945312	
